<svg height="512pt" viewBox="0 0 512 512" width="512pt" xmlns="http://www.w3.org/2000/svg"><path d="m400.78125 255.5c0 79.683594-64.59375 144.28125-144.28125 144.28125-79.683594 0-144.28125-64.597656-144.28125-144.28125 0-79.6875 64.597656-144.28125 144.28125-144.28125 79.6875 0 144.28125 64.59375 144.28125 144.28125zm0 0" fill="#feef7f"/><path d="m216.421875 247.984375h16.03125v15.03125h-16.03125zm0 0" fill="#fff"/><path d="m248.484375 247.984375h16.03125v15.03125h-16.03125zm0 0" fill="#fff"/><path d="m280.546875 247.984375h16.03125v15.03125h-16.03125zm0 0" fill="#fff"/><g fill="#ea9a10"><path d="m256.5 111.21875c-4.050781 0-8.058594.171875-12.023438.5 74.058594 6.113281 132.257813 68.144531 132.257813 143.78125s-58.199219 137.667969-132.257813 143.78125c3.964844.324219 7.972657.5 12.023438.5 79.6875 0 144.28125-64.597656 144.28125-144.28125s-64.59375-144.28125-144.28125-144.28125zm0 0"/><path d="m280.546875 79.15625h-48.09375l22.042969-72.140625h4.007812zm0 0"/><path d="m232.453125 431.84375h48.09375l-22.042969 72.140625h-4.007812zm0 0"/><path d="m398.199219 147.808594-34.007813-34.007813 66.597656-35.425781 2.835938 2.835938zm0 0"/><path d="m114.804688 363.1875 34.007812 34.007812-66.601562 35.425782-2.832032-2.832032zm0 0"/><path d="m432.84375 279.546875v-48.09375l72.140625 22.042969v4.007812zm0 0"/><path d="m80.15625 231.453125v48.09375l-72.140625-22.042969v-4.007812zm0 0"/><path d="m364.191406 397.195312 34.007813-34.007812 35.425781 66.601562-2.835938 2.832032zm0 0"/><path d="m148.8125 113.800781-34.007812 34.007813-35.425782-66.597656 2.832032-2.835938zm0 0"/></g><path d="m256.5 103.703125c-83.699219 0-151.796875 68.09375-151.796875 151.796875 0 83.699219 68.097656 151.796875 151.796875 151.796875 83.703125 0 151.796875-68.097656 151.796875-151.796875 0-83.703125-68.09375-151.796875-151.796875-151.796875zm0 288.5625c-75.414062 0-136.765625-61.351563-136.765625-136.765625s61.351563-136.769531 136.765625-136.769531 136.769531 61.355469 136.769531 136.769531-61.355469 136.765625-136.769531 136.765625zm0 0"/><path d="m152.796875 255.5h15.03125c0-48.894531 39.777344-88.675781 88.671875-88.675781v-15.027344c-57.179688 0-103.703125 46.519531-103.703125 103.703125zm0 0"/><path d="m264.066406 0h-15.132812l-26.632813 87.171875h68.402344zm-7.566406 26.671875 13.894531 45.46875h-27.785156zm0 0"/><path d="m248.933594 512h15.132812l26.636719-87.171875h-68.402344zm7.566406-26.671875-13.890625-45.46875h27.785156zm0 0"/><path d="m442.871094 79.828125-10.699219-10.699219-80.472656 42.804688 48.367187 48.367187zm-66.1875 35.835937 41.976562-22.324218-22.324218 41.976562zm0 0"/><path d="m70.132812 431.167969 10.699219 10.699219 80.472657-42.804688-48.367188-48.367188zm66.183594-35.835938-41.972656 22.328125 22.324219-41.976562zm0 0"/><path d="m424.828125 221.296875v68.402344l87.171875-26.632813v-15.132812zm15.03125 48.09375v-27.785156l45.46875 13.894531zm0 0"/><path d="m87.171875 221.296875-87.171875 26.636719v15.132812l87.171875 26.632813zm-15.03125 48.09375-45.46875-13.890625 45.46875-13.894531zm0 0"/><path d="m351.699219 399.0625 80.472656 42.804688 10.699219-10.699219-42.804688-80.472657zm24.984375-3.730469 19.648437-19.648437 22.328125 41.976562zm0 0"/><path d="m161.304688 111.933594-80.472657-42.800782-10.699219 10.695313 42.804688 80.472656zm-24.988282 3.730468-19.648437 19.648438-22.324219-41.972656zm0 0"/></svg>