<svg height="512pt" viewBox="0 -88 512 512" width="512pt" xmlns="http://www.w3.org/2000/svg"><path d="m416 167.5c0 88.367188-71.632812 160-160 160s-160-71.632812-160-160 71.632812-160 160-160 160 71.632812 160 160zm0 0" fill="#feef7f"/><path d="m216 160h16v15h-16zm0 0" fill="#fff"/><path d="m248 160h16v15h-16zm0 0" fill="#fff"/><path d="m280 160h16v15h-16zm0 0" fill="#fff"/><path d="m256 7.5c-4.035156 0-8.039062.152344-12 .445312 82.761719 6.140626 148 75.226563 148 159.554688s-65.238281 153.414062-148 159.554688c3.960938.292968 7.964844.445312 12 .445312 88.363281 0 160-71.632812 160-160s-71.636719-160-160-160zm0 0" fill="#ea9a10"/><g fill="#fff"><path d="m512 183.5c-17.671875 0-32 14.328125-32 32 0-17.671875-14.328125-32-32-32 17.671875 0 32-14.328125 32-32 0 17.671875 14.328125 32 32 32zm0 0"/><path d="m448 119.5c-17.671875 0-32 14.328125-32 32 0-17.671875-14.328125-32-32-32 17.671875 0 32-14.328125 32-32 0 17.671875 14.328125 32 32 32zm0 0"/><path d="m80 215.5c-17.671875 0-32 14.328125-32 32 0-17.671875-14.328125-32-32-32 17.671875 0 32-14.328125 32-32 0 17.671875 14.328125 32 32 32zm0 0"/><path d="m64 103.5c-17.671875 0-32 14.328125-32 32 0-17.671875-14.328125-32-32-32 17.671875 0 32-14.328125 32-32 0 17.671875 14.328125 32 32 32zm0 0"/></g><path d="m216 119.5c0 8.835938-7.164062 16-16 16s-16-7.164062-16-16 7.164062-16 16-16 16 7.164062 16 16zm0 0" fill="#ea9a10"/><path d="m232 231.5c0 8.835938-7.164062 16-16 16s-16-7.164062-16-16 7.164062-16 16-16 16 7.164062 16 16zm0 0" fill="#ea9a10"/><path d="m176 175.5c0 13.253906-10.746094 24-24 24s-24-10.746094-24-24 10.746094-24 24-24 24 10.746094 24 24zm0 0" fill="#ea9a10"/><path d="m256 48v15c57.621094 0 104.5 46.878906 104.5 104.5h15c0-65.894531-53.605469-119.5-119.5-119.5zm0 0"/><path d="m256 320c-84.089844 0-152.5-68.410156-152.5-152.5s68.410156-152.5 152.5-152.5c27.25 0 53.988281 7.269531 77.324219 21.027344 22.667969 13.363281 41.609375 32.460937 54.78125 55.234375l12.984375-7.511719c-14.460938-25.003906-35.261719-45.972656-60.148438-60.644531-25.640625-15.117188-55.015625-23.105469-84.941406-23.105469-92.359375 0-167.5 75.140625-167.5 167.5s75.140625 167.5 167.5 167.5 167.5-75.140625 167.5-167.5h-15c0 84.089844-68.410156 152.5-152.5 152.5zm0 0"/><path d="m487.5 151.5h-15c0 13.511719-10.992188 24.5-24.5 24.5v15c13.507812 0 24.5 10.988281 24.5 24.5h15c0-13.511719 10.992188-24.5 24.5-24.5v-15c-13.507812 0-24.5-10.988281-24.5-24.5zm-7.5 40.882812c-2.472656-3.410156-5.472656-6.410156-8.882812-8.882812 3.410156-2.472656 6.410156-5.472656 8.882812-8.882812 2.472656 3.410156 5.472656 6.410156 8.882812 8.882812-3.410156 2.472656-6.410156 5.472656-8.882812 8.882812zm0 0"/><path d="m448 112c-13.507812 0-24.5-10.988281-24.5-24.5h-15c0 13.511719-10.992188 24.5-24.5 24.5v15c13.507812 0 24.5 10.988281 24.5 24.5h15c0-13.511719 10.992188-24.5 24.5-24.5zm-32 16.382812c-2.472656-3.410156-5.472656-6.410156-8.882812-8.882812 3.410156-2.472656 6.410156-5.472656 8.882812-8.882812 2.472656 3.410156 5.472656 6.410156 8.882812 8.882812-3.410156 2.472656-6.410156 5.472656-8.882812 8.882812zm0 0"/><path d="m55.5 183.5h-15c0 13.511719-10.992188 24.5-24.5 24.5v15c13.507812 0 24.5 10.988281 24.5 24.5h15c0-13.511719 10.992188-24.5 24.5-24.5v-15c-13.507812 0-24.5-10.988281-24.5-24.5zm-7.5 40.882812c-2.472656-3.410156-5.472656-6.410156-8.882812-8.882812 3.410156-2.472656 6.410156-5.472656 8.882812-8.882812 2.472656 3.410156 5.472656 6.410156 8.882812 8.882812-3.410156 2.472656-6.410156 5.472656-8.882812 8.882812zm0 0"/><path d="m24.5 135.5h15c0-13.511719 10.992188-24.5 24.5-24.5v-15c-13.507812 0-24.5-10.988281-24.5-24.5h-15c0 13.511719-10.992188 24.5-24.5 24.5v15c13.507812 0 24.5 10.988281 24.5 24.5zm7.5-40.882812c2.472656 3.410156 5.472656 6.410156 8.882812 8.882812-3.410156 2.472656-6.410156 5.472656-8.882812 8.882812-2.472656-3.410156-5.472656-6.410156-8.882812-8.882812 3.410156-2.472656 6.410156-5.472656 8.882812-8.882812zm0 0"/><path d="m223.5 119.5c0-12.957031-10.542969-23.5-23.5-23.5s-23.5 10.542969-23.5 23.5 10.542969 23.5 23.5 23.5 23.5-10.542969 23.5-23.5zm-32 0c0-4.6875 3.8125-8.5 8.5-8.5s8.5 3.8125 8.5 8.5-3.8125 8.5-8.5 8.5-8.5-3.8125-8.5-8.5zm0 0"/><path d="m216 255c12.957031 0 23.5-10.542969 23.5-23.5s-10.542969-23.5-23.5-23.5-23.5 10.542969-23.5 23.5 10.542969 23.5 23.5 23.5zm0-32c4.6875 0 8.5 3.8125 8.5 8.5s-3.8125 8.5-8.5 8.5-8.5-3.8125-8.5-8.5 3.8125-8.5 8.5-8.5zm0 0"/><path d="m152 144c-17.367188 0-31.5 14.132812-31.5 31.5s14.132812 31.5 31.5 31.5 31.5-14.132812 31.5-31.5-14.132812-31.5-31.5-31.5zm0 48c-9.097656 0-16.5-7.402344-16.5-16.5s7.402344-16.5 16.5-16.5 16.5 7.402344 16.5 16.5-7.402344 16.5-16.5 16.5zm0 0"/></svg>