<svg height="512pt" viewBox="0 -28 512 512" width="512pt" xmlns="http://www.w3.org/2000/svg"><path d="m199.902344 80.15625c-13.402344-10.066406-30.054688-16.03125-48.105469-16.03125-44.269531 0-80.15625 35.886719-80.15625 80.15625s35.886719 80.15625 80.15625 80.15625c18.046875 0 34.703125-5.964844 48.101563-16.03125l8.007812 8.015625c-20.585938 24.503906-53.664062 40.078125-88.171875 40.078125-61.976563 0-112.21875-50.242188-112.21875-112.21875s50.242187-112.21875 112.21875-112.21875c34.507813 0 67.585937 15.574219 88.171875 40.078125zm0 0" fill="#feef7f"/><path d="m456.390625 352.6875c-1.378906 0-2.742187.074219-4.089844.1875 2.667969-10.304688 4.089844-21.109375 4.089844-32.25 0-70.828125-57.417969-128.25-128.25-128.25-70.828125 0-128.25 57.421875-128.25 128.25-35.414063 0-64.125 28.710938-64.125 64.125 0 35.417969 28.710937 64.125 64.125 64.125h256.5c26.5625 0 48.09375-21.53125 48.09375-48.09375 0-26.558594-21.53125-48.09375-48.09375-48.09375zm0 0" fill="#daedf7"/><path d="m456.390625 352.6875c-1.378906 0-2.742187.074219-4.089844.1875 2.667969-10.304688 4.089844-21.109375 4.089844-32.25 0-70.828125-57.417969-128.25-128.25-128.25-4.054687 0-8.0625.199219-12.023437.566406 65.191406 6.0625 116.226562 60.910156 116.226562 127.683594 0 11.140625-1.421875 21.945312-4.089844 32.25 1.347656-.113281 2.710938-.1875 4.089844-.1875 26.5625 0 48.09375 21.535156 48.09375 48.09375 0 26.5625-21.53125 48.09375-48.09375 48.09375h24.046875c26.5625 0 48.09375-21.53125 48.09375-48.09375 0-26.558594-21.53125-48.09375-48.09375-48.09375zm0 0" fill="#8bb4d9"/><g fill="#fff"><path d="m280.046875 401.285156h16.03125v15.027344h-16.03125zm0 0"/><path d="m312.109375 401.285156h16.03125v15.027344h-16.03125zm0 0"/><path d="m344.171875 401.285156h16.03125v15.027344h-16.03125zm0 0"/><path d="m119.734375 32.0625c-17.707031 0-32.0625 14.359375-32.0625 32.0625 0-17.703125-14.359375-32.0625-32.0625-32.0625 17.703125 0 32.0625-14.359375 32.0625-32.0625 0 17.703125 14.355469 32.0625 32.0625 32.0625zm0 0"/><path d="m127.75 312.609375c-17.703125 0-32.0625 14.359375-32.0625 32.0625 0-17.703125-14.359375-32.0625-32.0625-32.0625 17.703125 0 32.0625-14.355469 32.0625-32.0625 0 17.707031 14.359375 32.0625 32.0625 32.0625zm0 0"/><path d="m247.984375 144.28125c-17.703125 0-32.0625 14.359375-32.0625 32.0625 0-17.703125-14.359375-32.0625-32.0625-32.0625 17.703125 0 32.0625-14.359375 32.0625-32.0625 0 17.703125 14.359375 32.0625 32.0625 32.0625zm0 0"/></g><path d="m213.660156 221.257812 4.429688-5.273437-17.488282-17.503906-5.21875 3.917969c-12.644531 9.503906-27.71875 14.523437-43.585937 14.523437-40.054687 0-72.640625-32.585937-72.640625-72.640625s32.585938-72.640625 72.640625-72.640625c15.867187 0 30.941406 5.023437 43.589844 14.527344l5.21875 3.921875 17.484375-17.511719-4.429688-5.269531c-18.664062-22.21875-46.675781-37.371094-76.859375-41.574219l-2.070312 14.886719c21.167969 2.949218 41.085937 11.972656 56.550781 25.347656-12.152344-6.15625-25.566406-9.359375-39.484375-9.359375-48.34375 0-87.671875 39.328125-87.671875 87.671875s39.328125 87.671875 87.671875 87.671875c13.882813 0 27.261719-3.1875 39.386719-9.308594-19.222656 16.5-45.378906 26.339844-71.449219 26.339844-57.734375 0-104.703125-46.96875-104.703125-104.703125 0-34.210938 16.773438-66.339844 44.875-85.941406l-8.597656-12.324219c-32.128906 22.40625-51.308594 59.144531-51.308594 98.265625 0 66.023438 53.710938 119.734375 119.734375 119.734375 36.320313 0 71.433594-15.984375 93.925781-42.757813zm0 0"/><path d="m461.601562 345.425781c1.519532-8.148437 2.304688-16.449219 2.304688-24.800781 0-74.859375-60.902344-135.765625-135.765625-135.765625-72.464844 0-131.851563 57.070313-135.578125 128.625-36.074219 3.679687-64.3125 34.488281-64.3125 71.519531 0 39.5 32.136719 71.886719 71.640625 71.886719h256.5c30.664063 0 55.609375-25.195313 55.609375-55.855469 0-28.90625-22.171875-52.972656-50.398438-55.609375zm-5.210937 96.4375h-256.5c-31.214844 0-56.609375-25.644531-56.609375-56.859375 0-28.75 21.546875-52.671875 49.335938-56.253906.511718 8.777344 1.859374 17.410156 4.035156 25.875l14.554687-3.777344c-2.523437-9.808594-3.804687-19.980468-3.804687-30.207031 0-66.574219 54.164062-120.746094 120.738281-120.746094s120.734375 54.160157 120.734375 120.734375c0 27.757813-9.152344 53.847656-26.476562 75.457032l11.726562 9.398437c10.789062-13.457031 18.851562-28.867187 23.851562-45.238281 21.640626.835937 38.992188 18.945312 38.992188 40.789062 0 22.375-18.203125 40.828125-40.578125 40.828125zm0 0"/><path d="m240.46875 320.625h15.03125c0-40.054688 32.585938-72.640625 72.640625-72.640625v-15.03125c-48.34375 0-87.671875 39.332031-87.671875 87.671875zm0 0"/><path d="m80.15625 64.125h15.03125c0-13.535156 11.011719-24.546875 24.546875-24.546875v-15.03125c-13.535156 0-24.546875-11.011719-24.546875-24.546875h-15.03125c0 13.535156-11.011719 24.546875-24.546875 24.546875v15.03125c13.535156 0 24.546875 11.011719 24.546875 24.546875zm7.515625-40.964844c2.476563 3.417969 5.480469 6.425782 8.902344 8.902344-3.421875 2.476562-6.425781 5.484375-8.902344 8.902344-2.476563-3.417969-5.484375-6.425782-8.902344-8.902344 3.417969-2.476562 6.425781-5.484375 8.902344-8.902344zm0 0"/><path d="m103.203125 280.546875h-15.03125c0 13.535156-11.011719 24.550781-24.546875 24.550781v15.027344c13.535156 0 24.546875 11.011719 24.546875 24.546875h15.03125c0-13.535156 11.011719-24.546875 24.546875-24.546875v-15.027344c-13.535156 0-24.546875-11.015625-24.546875-24.550781zm-7.515625 40.964844c-2.476562-3.417969-5.484375-6.425781-8.902344-8.902344 3.417969-2.476563 6.425782-5.480469 8.902344-8.898437 2.476562 3.417968 5.480469 6.421874 8.902344 8.898437-3.421875 2.476563-6.425782 5.484375-8.902344 8.902344zm0 0"/><path d="m183.859375 136.765625v15.03125c13.535156 0 24.546875 11.011719 24.546875 24.546875h15.03125c0-13.535156 11.011719-24.546875 24.546875-24.546875v-15.03125c-13.535156 0-24.546875-11.011719-24.546875-24.546875h-15.03125c0 13.535156-11.011719 24.546875-24.546875 24.546875zm32.0625-1.386719c2.476563 3.421875 5.484375 6.425782 8.902344 8.902344-3.417969 2.476562-6.425781 5.484375-8.902344 8.902344-2.476563-3.417969-5.484375-6.425782-8.902344-8.902344 3.417969-2.476562 6.425781-5.480469 8.902344-8.902344zm0 0"/></svg>