<svg height="512pt" viewBox="0 -28 512 512" width="512pt" xmlns="http://www.w3.org/2000/svg"><g fill="#daedf7"><path d="m63.625 328.109375h-40.078125c-8.859375 0-16.03125-7.175781-16.03125-16.03125 0-4.429687 1.792969-8.4375 4.6875-11.34375 2.90625-2.894531 6.914063-4.6875 11.34375-4.6875h40.078125c-4.429688 0-8.4375 1.792969-11.34375 4.6875-2.894531 2.90625-4.6875 6.914063-4.6875 11.34375 0 8.855469 7.171875 16.03125 16.03125 16.03125zm0 0"/><path d="m199.890625 360.171875h40.078125c8.855469 0 16.03125-7.175781 16.03125-16.03125 0-4.429687-1.792969-8.4375-4.6875-11.34375-2.90625-2.894531-6.914062-4.6875-11.34375-4.6875h-40.078125c4.429687 0 8.4375 1.792969 11.34375 4.6875 2.894531 2.90625 4.6875 6.914063 4.6875 11.34375 0 8.855469-7.175781 16.03125-16.03125 16.03125zm0 0"/><path d="m239.96875 296.046875h40.078125c8.855469 0 16.03125-7.175781 16.03125-16.03125 0-4.429687-1.792969-8.4375-4.6875-11.34375-2.90625-2.894531-6.914063-4.6875-11.34375-4.6875h-40.078125c4.429688 0 8.4375 1.792969 11.34375 4.6875 2.894531 2.90625 4.6875 6.914063 4.6875 11.34375 0 8.855469-7.175781 16.03125-16.03125 16.03125zm0 0"/><path d="m392.265625 167.792969c-1.378906 0-2.742187.074219-4.089844.1875 2.667969-10.304688 4.089844-21.109375 4.089844-32.25 0-70.828125-57.417969-128.25-128.25-128.25s-128.25 57.421875-128.25 128.25c-35.414063 0-64.125 28.710937-64.125 64.125 0 35.417969 28.710937 64.128906 64.125 64.128906h256.5c26.5625 0 48.09375-21.535156 48.09375-48.097656 0-26.558594-21.53125-48.09375-48.09375-48.09375zm0 0"/></g><path d="m392.265625 167.792969c-1.378906 0-2.742187.074219-4.089844.1875 2.667969-10.304688 4.089844-21.109375 4.089844-32.25 0-70.828125-57.417969-128.25-128.25-128.25-4.054687 0-8.0625.199219-12.023437.566406 65.191406 6.0625 116.226562 60.910156 116.226562 127.683594 0 11.140625-1.421875 21.945312-4.089844 32.25 1.347656-.113281 2.710938-.1875 4.089844-.1875 26.5625 0 48.09375 21.535156 48.09375 48.09375 0 26.5625-21.53125 48.097656-48.09375 48.097656h24.046875c26.5625 0 48.09375-21.535156 48.09375-48.097656 0-26.558594-21.53125-48.09375-48.09375-48.09375zm0 0" fill="#8bb4d9"/><path d="m215.921875 216.390625h16.03125v15.027344h-16.03125zm0 0" fill="#fff"/><path d="m247.984375 216.390625h16.03125v15.027344h-16.03125zm0 0" fill="#fff"/><path d="m280.046875 216.390625h16.03125v15.027344h-16.03125zm0 0" fill="#fff"/><path d="m448.375 400.25h40.078125c8.859375 0 16.03125-7.175781 16.03125-16.03125 0-4.429688-1.792969-8.4375-4.6875-11.34375-2.90625-2.894531-6.914063-4.6875-11.34375-4.6875h-40.078125c4.429688 0 8.4375 1.792969 11.34375 4.6875 2.894531 2.90625 4.6875 6.914062 4.6875 11.34375 0 8.855469-7.171875 16.03125-16.03125 16.03125zm0 0" fill="#daedf7"/><path d="m368.21875 368.1875h-40.078125c-8.855469 0-16.03125-7.175781-16.03125-16.03125 0-4.429688 1.792969-8.4375 4.6875-11.34375 2.90625-2.894531 6.914063-4.6875 11.34375-4.6875h40.078125c-4.429688 0-8.4375 1.792969-11.339844 4.6875-2.898437 2.90625-4.691406 6.914062-4.691406 11.34375 0 8.855469 7.175781 16.03125 16.03125 16.03125zm0 0" fill="#daedf7"/><path d="m280.046875 432.3125h-40.078125c-8.855469 0-16.03125-7.175781-16.03125-16.03125 0-4.429688 1.792969-8.4375 4.6875-11.34375 2.90625-2.894531 6.914062-4.6875 11.34375-4.6875h40.078125c-4.429687 0-8.4375 1.792969-11.34375 4.6875-2.894531 2.90625-4.6875 6.914062-4.6875 11.34375 0 8.855469 7.175781 16.03125 16.03125 16.03125zm0 0" fill="#daedf7"/><path d="m135.765625 271.496094v-15.027344c-31.214844 0-56.609375-25.394531-56.609375-56.613281 0-28.746094 21.546875-52.542969 49.335938-56.125.511718 8.777343 1.855468 17.472656 4.035156 25.9375l14.554687-3.746094c-2.523437-9.804687-3.804687-19.964844-3.804687-30.191406 0-66.574219 54.164062-120.734375 120.738281-120.734375s120.734375 54.164062 120.734375 120.734375c0 27.757812-9.15625 53.851562-26.476562 75.460937l11.726562 9.398438c10.789062-13.457032 18.851562-28.867188 23.851562-45.238282 21.640626.835938 38.992188 18.945313 38.992188 40.789063 0 22.375-18.203125 40.828125-40.578125 40.828125h-72.140625v15.03125h72.140625c30.664063 0 55.609375-25.195312 55.609375-55.859375 0-28.90625-22.171875-52.847656-50.398438-55.480469 1.519532-8.148437 2.304688-16.511718 2.304688-24.863281 0-74.863281-60.90625-135.796875-135.765625-135.796875-72.464844 0-131.851563 57.054688-135.578125 128.605469-36.074219 3.683593-64.3125 34.230469-64.3125 71.261719 0 39.5 32.136719 71.628906 71.640625 71.628906zm0 0"/><path d="m191.375 135.730469c0-40.054688 32.585938-72.640625 72.640625-72.640625v-15.027344c-48.34375 0-87.671875 39.328125-87.671875 87.667969zm0 0"/><path d="m263.515625 344.640625c0-12.984375-10.5625-23.546875-23.546875-23.546875h-176.34375c-4.695312 0-8.515625-3.820312-8.515625-8.515625s3.820313-8.515625 8.515625-8.515625h216.421875c12.984375 0 23.546875-10.5625 23.546875-23.546875s-10.5625-23.546875-23.546875-23.546875h-104.203125c-4.695312 0-8.515625-4.070312-8.515625-8.765625 0-4.699219 3.820313-8.769531 8.515625-8.769531v-15.027344c-12.984375 0-23.546875 10.8125-23.546875 23.796875 0 12.980469 10.5625 23.796875 23.546875 23.796875h64.125c4.695312 0 8.515625 3.820312 8.515625 8.515625s-3.820313 8.515625-8.515625 8.515625h-216.421875c-12.984375 0-23.546875 10.5625-23.546875 23.546875s10.5625 23.546875 23.546875 23.546875h176.34375c4.695313 0 8.515625 3.820312 8.515625 8.515625s-3.820312 8.515625-8.515625 8.515625h-56.109375c-12.984375 0-24.046875 10.0625-24.046875 23.046875v8.015625h15.027344v-8.015625c0-4.699219 4.324219-8.015625 9.019531-8.015625h96.1875c12.984375 0 23.546875-10.5625 23.546875-23.546875zm-1.601563-72.640625h18.132813c4.695313 0 8.515625 3.820312 8.515625 8.515625s-3.820312 8.515625-8.515625 8.515625h-18.132813c1.03125-3.003906 1.601563-5.511719 1.601563-8.515625s-.570313-6.511719-1.601563-8.515625zm-220.234374 49.09375h-18.132813c-4.695313 0-8.515625-3.820312-8.515625-8.515625s3.820312-8.515625 8.515625-8.515625h18.132813c-1.03125 2.003906-1.601563 5.511719-1.601563 8.515625s.570313 5.511719 1.601563 8.515625zm180.15625 15.03125h18.132812c4.695312 0 8.515625 3.820312 8.515625 8.515625s-3.820313 8.515625-8.515625 8.515625h-18.132812c1.03125-3.003906 1.601562-5.511719 1.601562-8.515625s-.570312-6.511719-1.601562-8.515625zm0 0"/><path d="m488.453125 361.171875h-120.234375c-4.695312 0-8.515625-3.820313-8.515625-8.515625s3.820313-8.515625 8.515625-8.515625h56.109375c12.984375 0 23.546875-10.816406 23.546875-23.796875 0-12.984375-10.5625-23.796875-23.546875-23.796875v15.027344c4.695313 0 8.515625 4.074219 8.515625 8.769531s-3.820312 8.765625-8.515625 8.765625h-96.1875c-12.984375 0-23.546875 10.5625-23.546875 23.546875s10.5625 23.546875 23.546875 23.546875h120.234375c4.695312 0 8.515625 3.820313 8.515625 8.515625s-3.820313 8.515625-8.515625 8.515625h-208.40625c-12.984375 0-23.546875 10.5625-23.546875 23.546875s10.5625 23.546875 23.546875 23.546875h48.09375c4.695312 0 8.015625 3.320313 8.015625 8.015625v8.015625h15.03125v-8.015625c0-12.984375-10.0625-23.046875-23.046875-23.046875h-8.015625c-4.695313 0-8.515625-3.820313-8.515625-8.515625s3.820312-8.515625 8.515625-8.515625h208.40625c12.984375 0 23.546875-10.5625 23.546875-23.546875s-10.5625-23.546875-23.546875-23.546875zm-142.179687 0h-18.132813c-4.695313 0-8.515625-3.820313-8.515625-8.515625s3.820312-8.515625 8.515625-8.515625h18.132813c-1.027344 2.003906-1.601563 5.511719-1.601563 8.515625s.574219 5.511719 1.601563 8.515625zm-88.171876 64.125h-18.132812c-4.695312 0-8.515625-3.820313-8.515625-8.515625s3.820313-8.515625 8.515625-8.515625h18.132812c-1.03125 2.003906-1.601562 5.511719-1.601562 8.515625s.570312 5.511719 1.601562 8.515625zm230.351563-32.0625h-18.132813c1.03125-3.003906 1.601563-5.511719 1.601563-8.515625s-.570313-6.511719-1.601563-8.515625h18.132813c4.695313 0 8.515625 3.820313 8.515625 8.515625s-3.820312 8.515625-8.515625 8.515625zm0 0"/></svg>