<svg height="512pt" viewBox="0 -76 512 512" width="512pt" xmlns="http://www.w3.org/2000/svg"><path d="m103.703125 127.570312c0 26.5625-21.53125 48.09375-48.09375 48.09375s-48.09375-21.53125-48.09375-48.09375 48.09375-112.21875 48.09375-112.21875 48.09375 85.65625 48.09375 112.21875zm0 0" fill="#b8ecff"/><path d="m55.609375 15.351562s-5.125 9.125-12.023437 22.335938c14.242187 27.277344 36.070312 71.988281 36.070312 89.882812 0 22.410157-15.328125 41.238282-36.070312 46.578126 3.839843.988281 7.871093 1.515624 12.023437 1.515624 26.5625 0 48.09375-21.53125 48.09375-48.09375s-48.09375-112.21875-48.09375-112.21875zm0 0" fill="#57bfe6"/><path d="m264.015625 127.570312c0 26.5625-21.53125 48.09375-48.09375 48.09375s-48.09375-21.53125-48.09375-48.09375 48.09375-112.21875 48.09375-112.21875 48.09375 85.65625 48.09375 112.21875zm0 0" fill="#b8ecff"/><path d="m215.921875 15.351562s-5.125 9.125-12.023437 22.335938c14.246093 27.277344 36.070312 71.988281 36.070312 89.882812 0 22.410157-15.328125 41.238282-36.070312 46.578126 3.84375.988281 7.871093 1.515624 12.023437 1.515624 26.5625 0 48.09375-21.53125 48.09375-48.09375s-48.09375-112.21875-48.09375-112.21875zm0 0" fill="#57bfe6"/><path d="m424.328125 127.570312c0 26.5625-21.53125 48.09375-48.09375 48.09375s-48.09375-21.53125-48.09375-48.09375 48.09375-112.21875 48.09375-112.21875 48.09375 85.65625 48.09375 112.21875zm0 0" fill="#b8ecff"/><path d="m376.234375 15.351562s-5.121094 9.125-12.023437 22.335938c14.246093 27.277344 36.070312 71.988281 36.070312 89.882812 0 22.410157-15.328125 41.238282-36.070312 46.578126 3.84375.988281 7.871093 1.515624 12.023437 1.515624 26.5625 0 48.09375-21.53125 48.09375-48.09375s-48.09375-112.21875-48.09375-112.21875zm0 0" fill="#57bfe6"/><g fill="#fff"><path d="m31.5625 128.070312h16.03125v15.027344h-16.03125zm0 0"/><path d="m191.875 128.070312h16.03125v15.027344h-16.03125zm0 0"/><path d="m352.1875 128.070312h16.03125v15.027344h-16.03125zm0 0"/></g><path d="m183.859375 303.914062c0 26.5625-21.53125 48.09375-48.09375 48.09375s-48.09375-21.53125-48.09375-48.09375 48.09375-112.21875 48.09375-112.21875 48.09375 85.65625 48.09375 112.21875zm0 0" fill="#b8ecff"/><path d="m135.765625 191.695312s-5.125 9.125-12.023437 22.335938c14.246093 27.277344 36.070312 71.988281 36.070312 89.882812 0 22.410157-15.328125 41.238282-36.070312 46.578126 3.84375.988281 7.871093 1.515624 12.023437 1.515624 26.5625 0 48.09375-21.53125 48.09375-48.09375s-48.09375-112.21875-48.09375-112.21875zm0 0" fill="#57bfe6"/><path d="m344.171875 303.914062c0 26.5625-21.53125 48.09375-48.09375 48.09375s-48.09375-21.53125-48.09375-48.09375 48.09375-112.21875 48.09375-112.21875 48.09375 85.65625 48.09375 112.21875zm0 0" fill="#b8ecff"/><path d="m296.078125 191.695312s-5.121094 9.125-12.023437 22.335938c14.246093 27.277344 36.070312 71.988281 36.070312 89.882812 0 22.410157-15.328125 41.238282-36.070312 46.578126 3.84375.988281 7.871093 1.515624 12.023437 1.515624 26.5625 0 48.09375-21.53125 48.09375-48.09375s-48.09375-112.21875-48.09375-112.21875zm0 0" fill="#57bfe6"/><path d="m504.484375 303.914062c0 26.5625-21.53125 48.09375-48.09375 48.09375s-48.09375-21.53125-48.09375-48.09375 48.09375-112.21875 48.09375-112.21875 48.09375 85.65625 48.09375 112.21875zm0 0" fill="#b8ecff"/><path d="m456.390625 191.695312s-5.121094 9.125-12.023437 22.335938c14.246093 27.277344 36.070312 71.988281 36.070312 89.882812 0 22.410157-15.324219 41.238282-36.070312 46.578126 3.84375.988281 7.871093 1.515624 12.023437 1.515624 26.5625 0 48.09375-21.53125 48.09375-48.09375s-48.09375-112.21875-48.09375-112.21875zm0 0" fill="#57bfe6"/><path d="m111.21875 127.570312c0-27.726562-44.035156-106.957031-49.058594-115.898437l-6.550781-11.671875-6.554687 11.667969c-5.019532 8.945312-49.054688 88.175781-49.054688 115.902343 0 30.660157 24.945312 55.609376 55.609375 55.609376s55.609375-24.949219 55.609375-55.609376zm-55.609375 40.578126c-22.375 0-40.578125-18.203126-40.578125-40.578126 0-17.359374 25.195312-67.933593 40.578125-96.582031 15.382813 28.644531 40.578125 79.214844 40.578125 96.582031 0 22.375-18.203125 40.578126-40.578125 40.578126zm0 0"/><path d="m271.53125 127.570312c0-27.726562-44.035156-106.957031-49.058594-115.898437l-6.550781-11.671875-6.554687 11.667969c-5.019532 8.945312-49.054688 88.175781-49.054688 115.902343 0 30.660157 24.945312 55.609376 55.609375 55.609376s55.609375-24.949219 55.609375-55.609376zm-55.609375 40.578126c-22.375 0-40.578125-18.203126-40.578125-40.578126 0-17.359374 25.195312-67.933593 40.578125-96.582031 15.382813 28.644531 40.578125 79.21875 40.578125 96.582031 0 22.375-18.203125 40.578126-40.578125 40.578126zm0 0"/><path d="m431.84375 127.570312c0-27.726562-44.035156-106.957031-49.054688-115.898437l-6.554687-11.671875-6.550781 11.667969c-5.023438 8.945312-49.058594 88.175781-49.058594 115.902343 0 30.660157 24.945312 55.609376 55.609375 55.609376s55.609375-24.949219 55.609375-55.609376zm-55.609375 40.578126c-22.375 0-40.578125-18.203126-40.578125-40.578126 0-17.359374 25.199219-67.933593 40.578125-96.582031 15.382813 28.644531 40.578125 79.21875 40.578125 96.582031 0 22.375-18.203125 40.578126-40.578125 40.578126zm0 0"/><path d="m135.765625 176.34375-6.554687 11.671875c-5.019532 8.941406-49.054688 88.171875-49.054688 115.898437 0 30.664063 24.945312 55.609376 55.609375 55.609376s55.609375-24.945313 55.609375-55.609376c0-27.726562-44.035156-106.957031-49.058594-115.898437zm0 168.148438c-22.375 0-40.578125-18.203126-40.578125-40.578126 0-17.355468 25.195312-67.933593 40.578125-96.582031 15.382813 28.644531 40.578125 79.214844 40.578125 96.582031 0 22.375-18.203125 40.578126-40.578125 40.578126zm0 0"/><path d="m296.078125 176.34375-6.550781 11.671875c-5.023438 8.941406-49.058594 88.171875-49.058594 115.898437 0 30.664063 24.945312 55.609376 55.609375 55.609376s55.609375-24.945313 55.609375-55.609376c0-27.726562-44.035156-106.957031-49.054688-115.898437zm0 168.148438c-22.375 0-40.578125-18.203126-40.578125-40.578126 0-17.355468 25.195312-67.933593 40.578125-96.582031 15.382813 28.644531 40.578125 79.214844 40.578125 96.582031 0 22.375-18.203125 40.578126-40.578125 40.578126zm0 0"/><path d="m462.945312 188.015625-6.554687-11.671875-6.550781 11.671875c-5.023438 8.941406-49.058594 88.171875-49.058594 115.898437 0 30.664063 24.945312 55.609376 55.609375 55.609376s55.609375-24.945313 55.609375-55.609376c0-27.726562-44.035156-106.957031-49.054688-115.898437zm-6.554687 156.476563c-22.375 0-40.578125-18.203126-40.578125-40.578126 0-17.355468 25.199219-67.933593 40.578125-96.582031 15.382813 28.644531 40.578125 79.214844 40.578125 96.582031 0 22.375-18.203125 40.578126-40.578125 40.578126zm0 0"/><path d="m111.71875 304.414062h16.03125v15.03125h-16.03125zm0 0" fill="#fff"/><path d="m272.03125 304.414062h16.03125v15.03125h-16.03125zm0 0" fill="#fff"/><path d="m432.34375 304.414062h16.03125v15.03125h-16.03125zm0 0" fill="#fff"/></svg>