<svg height="512pt" viewBox="0 -88 512 512" width="512pt" xmlns="http://www.w3.org/2000/svg"><path d="m504.484375 259.632812c0-37.628906-30.503906-68.132812-68.132813-68.132812-4.816406 0-9.515624.507812-14.050781 1.457031 1.328125-8.308593 2.027344-16.824219 2.027344-25.503906 0-88.539063-71.773437-160.3125-160.3125-160.3125-83.277344 0-151.714844 63.496094-159.554687 144.714844-2.886719-.285157-5.8125-.433594-8.773438-.433594-48.695312 0-88.171875 39.476563-88.171875 88.171875s39.476563 88.171875 88.171875 88.171875h344.671875v-.128906c35.761719-2.074219 64.125-31.722657 64.125-68.003907zm0 0" fill="#b8ecff"/><g fill="#fff"><path d="m215.921875 280.171875h16.03125v15.03125h-16.03125zm0 0"/><path d="m247.984375 280.171875h16.03125v15.03125h-16.03125zm0 0"/><path d="m280.046875 280.171875h16.03125v15.03125h-16.03125zm0 0"/></g><path d="m400.28125 167.453125c0 8.679687-.699219 17.195313-2.027344 25.503906 4.535156-.949219 9.234375-1.457031 14.050782-1.457031 3.433593 0 6.804687.257812 10.101562.75 1.257812-8.082031 1.921875-16.363281 1.921875-24.796875 0-88.539063-71.773437-160.3125-160.3125-160.3125-4.042969 0-8.050781.152344-12.019531.445313 82.921875 6.152343 148.285156 75.375 148.285156 159.867187zm0 0" fill="#57bfe6"/><path d="m436.351562 191.5c-4.097656 0-8.105468.386719-12.003906 1.082031 31.882813 5.6875 56.089844 33.535157 56.089844 67.050781 0 36.28125-28.363281 65.929688-64.125 68.003907v.128906h24.046875v-.128906c35.761719-2.074219 64.125-31.722657 64.125-68.003907 0-37.628906-30.503906-68.132812-68.132813-68.132812zm0 0" fill="#57bfe6"/><path d="m436.351562 184.484375h-5.308593c.527343-6.011719.800781-11.222656.800781-16.78125 0-92.542969-75.289062-167.703125-167.828125-167.703125-84.550781 0-154.683594 62.246094-166.167969 144.40625h-2.160156c-52.761719 0-95.6875 42.925781-95.6875 95.6875s42.925781 95.6875 95.6875 95.6875h340.664062c41.714844 0 75.648438-33.9375 75.648438-75.648438 0-41.710937-33.933594-75.648437-75.648438-75.648437zm0 136.265625h-340.664062c-44.476562 0-80.65625-36.179688-80.65625-80.65625s36.179688-80.65625 80.65625-80.65625h.714844c-.140625 2.003906-.214844 5.410156-.214844 8.265625 0 11.292969 1.128906 22.460937 3.359375 33.433594l14.726563-3.054688c-2.027344-9.988281-3.054688-20.304687-3.054688-30.597656 0-84.253906 68.542969-152.816406 152.796875-152.816406s152.796875 68.539062 152.796875 152.792969c0 33.375-10.5625 65.078124-30.554688 91.683593l12.015626 9.277344c15.546874-20.691406 25.898437-44.859375 30.621093-68.90625h7.457031c33.425782 0 60.617188 27.191406 60.617188 60.617187 0 33.425782-27.191406 60.617188-60.617188 60.617188zm0 0"/><path d="m152.296875 167.453125h15.03125c0-53.316406 43.375-96.691406 96.6875-96.691406v-15.027344c-61.601563 0-111.71875 50.117187-111.71875 111.71875zm0 0"/></svg>