<svg height="512pt" viewBox="0 -8 512 512" width="512pt" xmlns="http://www.w3.org/2000/svg"><path d="m504.484375 259.632812c0-37.628906-30.503906-68.132812-68.132813-68.132812-4.816406 0-9.515624.507812-14.050781 1.457031 1.328125-8.308593 2.027344-16.824219 2.027344-25.503906 0-88.539063-71.773437-160.3125-160.3125-160.3125-83.277344 0-151.714844 63.496094-159.554687 144.714844-2.886719-.285157-5.8125-.433594-8.773438-.433594-48.695312 0-88.171875 39.476563-88.171875 88.171875s39.476563 88.171875 88.171875 88.171875h344.671875v-.128906c35.761719-2.074219 64.125-31.722657 64.125-68.003907zm0 0" fill="#daedf7"/><path d="m400.28125 167.453125c0 8.679687-.699219 17.199219-2.027344 25.503906 4.535156-.949219 9.234375-1.457031 14.050782-1.457031 3.433593 0 6.804687.257812 10.101562.75 1.257812-8.085938 1.921875-16.363281 1.921875-24.796875 0-88.539063-71.773437-160.3125-160.3125-160.3125-4.042969 0-8.050781.152344-12.019531.445313 82.921875 6.152343 148.285156 75.375 148.285156 159.867187zm0 0" fill="#8bb4d9"/><path d="m436.351562 191.5c-4.097656 0-8.105468.386719-12.003906 1.082031 31.882813 5.6875 56.089844 33.535157 56.089844 67.050781 0 36.28125-28.363281 65.929688-64.125 68.003907v.128906h24.046875v-.128906c35.761719-2.074219 64.125-31.722657 64.125-68.003907 0-37.628906-30.503906-68.132812-68.132813-68.132812zm0 0" fill="#8bb4d9"/><g fill="#b8ecff"><path d="m210.652344 327.765625 45.34375-45.34375 45.34375 45.34375-45.34375 45.339844zm0 0"/><path d="m127.75 399.90625c0 8.855469-7.179688 16.03125-16.03125 16.03125-8.855469 0-16.03125-7.175781-16.03125-16.03125s7.175781-16.03125 16.03125-16.03125c8.851562 0 16.03125 7.175781 16.03125 16.03125zm0 0"/><path d="m448.375 375.859375c0 8.855469-7.175781 16.03125-16.03125 16.03125-8.851562 0-16.03125-7.175781-16.03125-16.03125s7.179688-16.03125 16.03125-16.03125c8.855469 0 16.03125 7.175781 16.03125 16.03125zm0 0"/><path d="m384.25 423.953125c0 8.855469-7.175781 16.03125-16.03125 16.03125-8.851562 0-16.03125-7.175781-16.03125-16.03125s7.179688-16.03125 16.03125-16.03125c8.855469 0 16.03125 7.175781 16.03125 16.03125zm0 0"/><path d="m191.875 472.046875c0 8.855469-7.175781 16.03125-16.03125 16.03125s-16.03125-7.175781-16.03125-16.03125 7.175781-16.03125 16.03125-16.03125 16.03125 7.175781 16.03125 16.03125zm0 0"/></g><path d="m215.921875 151.921875h16.03125v15.027344h-16.03125zm0 0" fill="#fff"/><path d="m247.984375 151.921875h16.03125v15.027344h-16.03125zm0 0" fill="#fff"/><path d="m280.046875 151.921875h16.03125v15.027344h-16.03125zm0 0" fill="#fff"/><path d="m436.351562 184.484375h-5.308593c.527343-6.011719.800781-11.222656.800781-16.78125 0-92.542969-75.289062-167.703125-167.828125-167.703125-84.550781 0-154.683594 62.246094-166.167969 144.40625h-2.160156c-52.761719 0-95.6875 42.925781-95.6875 95.6875s42.925781 95.6875 95.6875 95.6875h8.015625v-15.03125h-8.015625c-44.476562 0-80.65625-36.179688-80.65625-80.65625s36.179688-80.65625 80.65625-80.65625h.714844c-.140625 2.003906-.214844 5.410156-.214844 8.265625 0 11.292969 1.128906 22.460937 3.359375 33.433594l14.726563-3.054688c-2.027344-9.988281-3.054688-20.304687-3.054688-30.597656 0-84.253906 68.542969-152.816406 152.796875-152.816406s152.796875 68.539062 152.796875 152.792969c0 33.375-10.566406 65.078124-30.554688 91.683593l12.015626 9.277344c15.546874-20.691406 25.898437-44.859375 30.621093-68.90625h7.457031c33.425782 0 60.617188 27.191406 60.617188 60.617187 0 33.425782-27.191406 60.617188-60.617188 60.617188h-28.054687v15.03125h28.054687c41.714844 0 75.648438-33.9375 75.648438-75.648438 0-41.714843-33.933594-75.648437-75.648438-75.648437zm0 0"/><path d="m264.015625 70.761719v-15.027344c-61.601563 0-111.71875 50.117187-111.71875 111.71875h15.03125c0-53.316406 43.375-96.691406 96.6875-96.691406zm0 0"/><path d="m381.550781 309.28125-10.628906-10.5-21.847656 21.96875h-26.835938l35.265625-35.515625-10.628906-10.75-44.15625 44.09375-37.464844-37.5 44.15625-44.171875-10.878906-10.632812-35.515625 35.253906v-26.835938l22.09375-21.847656-10.75-10.625-11.34375 11.214844v-21.933594h-15.03125v21.933594l-10.96875-11.214844-10.75 10.625 21.71875 21.847656v26.835938l-35.011719-35.261719-10.503906 10.625 44.21875 44.15625-37.4375 37.464844-44.136719-44.152344-10.621093 10.875 35.273437 35.515625h-26.839844l-21.84375-22.09375-10.628906 10.75 11.21875 11.34375h-21.9375v15.03125h21.933594l-11.21875 10.96875 10.628906 10.75 21.847656-21.71875h26.835938l-35.265625 35.015625 10.628906 10.5 44.15625-44.21875 37.464844 37.4375-44.15625 44.140625 10.378906 10.617188 35.011719-35.273438v26.839844l-21.59375 21.847656 10.5 10.625 11.09375-11.21875v21.9375h15.027343v-21.9375l11.46875 11.21875 10.503907-10.625-21.964844-21.847656v-26.839844l35.511719 35.265625 10.753906-10.625-44.09375-44.15625 37.5-37.46875 44.171875 44.15625 10.632813-10.375-35.257813-35.015625h26.839844l21.84375 21.59375 10.628906-10.5-11.21875-11.09375h21.9375v-15.03125h-21.933594zm-125.550781 53.199219-34.714844-34.714844 34.714844-34.714844 34.714844 34.714844zm0 0"/><path d="m111.71875 376.359375c-12.984375 0-23.546875 10.5625-23.546875 23.546875s10.5625 23.546875 23.546875 23.546875 23.546875-10.5625 23.546875-23.546875-10.5625-23.546875-23.546875-23.546875zm0 32.0625c-4.695312 0-8.515625-3.820313-8.515625-8.515625s3.820313-8.515625 8.515625-8.515625 8.515625 3.820313 8.515625 8.515625-3.820313 8.515625-8.515625 8.515625zm0 0"/><path d="m432.34375 352.3125c-12.984375 0-23.546875 10.5625-23.546875 23.546875s10.5625 23.546875 23.546875 23.546875 23.546875-10.5625 23.546875-23.546875-10.5625-23.546875-23.546875-23.546875zm0 32.0625c-4.695312 0-8.515625-3.820312-8.515625-8.515625s3.820313-8.515625 8.515625-8.515625 8.515625 3.820312 8.515625 8.515625-3.820313 8.515625-8.515625 8.515625zm0 0"/><path d="m368.21875 400.40625c-12.984375 0-23.546875 10.5625-23.546875 23.546875s10.5625 23.546875 23.546875 23.546875 23.546875-10.5625 23.546875-23.546875-10.5625-23.546875-23.546875-23.546875zm0 32.0625c-4.695312 0-8.515625-3.820312-8.515625-8.515625s3.820313-8.515625 8.515625-8.515625 8.515625 3.820312 8.515625 8.515625-3.820313 8.515625-8.515625 8.515625zm0 0"/><path d="m175.84375 448.5c-12.984375 0-23.546875 10.5625-23.546875 23.546875s10.5625 23.546875 23.546875 23.546875 23.546875-10.5625 23.546875-23.546875-10.5625-23.546875-23.546875-23.546875zm0 32.0625c-4.695312 0-8.515625-3.820312-8.515625-8.515625s3.820313-8.515625 8.515625-8.515625 8.515625 3.820312 8.515625 8.515625-3.820313 8.515625-8.515625 8.515625zm0 0"/></svg>