<svg height="512pt" viewBox="0 -16 512 512" width="512pt" xmlns="http://www.w3.org/2000/svg"><path d="m328.140625 167.828125c-1.378906 0-2.742187.070313-4.089844.183594 2.667969-10.304688 4.089844-21.109375 4.089844-32.246094 0-70.832031-57.417969-128.25-128.25-128.25s-128.25 57.417969-128.25 128.25c-35.414063 0-64.125 28.707031-64.125 64.125 0 35.414063 28.710937 64.125 64.125 64.125h256.5c26.5625 0 48.09375-21.53125 48.09375-48.09375s-21.53125-48.09375-48.09375-48.09375zm0 0" fill="#8bb4d9"/><path d="m456.390625 231.953125c-1.378906 0-2.742187.070313-4.089844.183594 2.667969-10.304688 4.089844-21.109375 4.089844-32.246094 0-70.832031-57.417969-128.25-128.25-128.25-70.828125 0-128.25 57.417969-128.25 128.25-35.414063 0-64.125 28.707031-64.125 64.125 0 35.414063 28.710937 64.125 64.125 64.125h256.5c26.5625 0 48.09375-21.53125 48.09375-48.09375s-21.53125-48.09375-48.09375-48.09375zm0 0" fill="#daedf7"/><path d="m280.046875 240.46875h16.03125v15.027344h-16.03125zm0 0" fill="#fff"/><path d="m312.109375 240.46875h16.03125v15.027344h-16.03125zm0 0" fill="#fff"/><path d="m344.171875 240.46875h16.03125v15.027344h-16.03125zm0 0" fill="#fff"/><path d="m456.390625 231.953125c-1.378906 0-2.742187.070313-4.089844.183594 2.667969-10.304688 4.089844-21.109375 4.089844-32.246094 0-70.832031-57.417969-128.25-128.25-128.25-4.054687 0-8.066406.195313-12.023437.5625 65.191406 6.0625 116.226562 60.910156 116.226562 127.6875 0 11.136719-1.421875 21.941406-4.089844 32.246094 1.347656-.113281 2.710938-.183594 4.089844-.183594 26.5625 0 48.09375 21.53125 48.09375 48.09375s-21.53125 48.09375-48.09375 48.09375h24.046875c26.5625 0 48.09375-21.53125 48.09375-48.09375s-21.53125-48.09375-48.09375-48.09375zm0 0" fill="#8bb4d9"/><g fill="#b8ecff"><path d="m448.375 408.296875c0 8.855469-7.175781 16.03125-16.03125 16.03125s-16.03125-7.175781-16.03125-16.03125 16.03125-40.078125 16.03125-40.078125 16.03125 31.222656 16.03125 40.078125zm0 0"/><path d="m384.25 456.390625c0 8.855469-7.175781 16.03125-16.03125 16.03125s-16.03125-7.175781-16.03125-16.03125 16.03125-40.078125 16.03125-40.078125 16.03125 31.222656 16.03125 40.078125zm0 0"/><path d="m127.75 408.296875c0 8.855469 7.175781 16.03125 16.03125 16.03125s16.03125-7.175781 16.03125-16.03125-16.03125-40.078125-16.03125-40.078125-16.03125 31.222656-16.03125 40.078125zm0 0"/><path d="m191.875 456.390625c0 8.855469 7.175781 16.03125 16.03125 16.03125s16.03125-7.175781 16.03125-16.03125-16.03125-40.078125-16.03125-40.078125-16.03125 31.222656-16.03125 40.078125zm0 0"/></g><path d="m328.140625 328.140625 24.046875-48.09375h-56.109375l-40.078125 80.15625h56.109375l-40.078125 80.15625h8.015625l104.203125-112.21875zm0 0" fill="#feef7f"/><path d="m328.140625 328.140625 24.046875-48.09375h-24.046875l-24.046875 48.09375zm0 0" fill="#ea9a10"/><path d="m360.203125 328.140625-69.46875 74.8125-18.703125 37.40625h8.015625l104.203125-112.21875s-12.269531 0-24.046875 0zm0 0" fill="#ea9a10"/><path d="m15.03125 200.140625c0-28.75 21.546875-52.671875 49.335938-56.253906.511718 8.78125 1.859374 17.414062 4.035156 25.875l14.554687-3.777344c-2.523437-9.804687-3.800781-19.976563-3.800781-30.203125 0-66.574219 54.160156-120.746094 120.734375-120.746094 34.617187 0 67.621094 14.894532 90.550781 40.871094l11.269532-9.949219c-25.78125-29.207031-62.894532-45.957031-101.820313-45.957031-72.464844 0-131.851563 57.070312-135.578125 128.621094-36.074219 3.683594-64.3125 34.492187-64.3125 71.519531 0 39.503906 32.136719 71.890625 71.640625 71.890625h40.078125v-15.027344h-40.078125c-31.214844 0-56.609375-25.648437-56.609375-56.863281zm0 0"/><path d="m199.890625 63.121094v-15.027344c-48.34375 0-87.671875 39.328125-87.671875 87.671875h15.03125c0-40.054687 32.585938-72.644531 72.640625-72.644531zm0 0"/><path d="m461.601562 224.691406c1.519532-8.148437 2.304688-16.449218 2.304688-24.800781 0-74.863281-60.902344-135.765625-135.765625-135.765625-72.464844 0-131.851563 57.070312-135.578125 128.625-36.074219 3.679688-64.3125 34.488281-64.3125 71.515625 0 39.503906 32.136719 71.890625 71.640625 71.890625h40.078125v-15.027344h-40.078125c-31.214844 0-56.609375-25.648437-56.609375-56.863281 0-28.75 21.546875-52.667969 49.335938-56.253906.511718 8.78125 1.859374 17.414062 4.035156 25.878906l14.554687-3.777344c-2.523437-9.804687-3.804687-19.980469-3.804687-30.207031 0-66.574219 54.164062-120.742188 120.738281-120.742188s120.734375 54.15625 120.734375 120.730469c0 27.753907-9.152344 53.84375-26.476562 75.453125l11.726562 9.402344c10.789062-13.460938 18.855469-28.867188 23.851562-45.242188 21.640626.835938 38.992188 18.945313 38.992188 40.789063 0 22.375-18.203125 40.832031-40.578125 40.832031h-40.078125v15.027344h40.078125c30.664063 0 55.609375-25.195312 55.609375-55.859375 0-28.90625-22.171875-52.972656-50.398438-55.605469zm0 0"/><path d="m328.140625 127.246094v-15.027344c-48.34375 0-87.671875 39.328125-87.671875 87.671875h15.03125c0-40.054687 32.585938-72.644531 72.640625-72.644531zm0 0"/><path d="m432.34375 351.765625-6.683594 13.019531c-3.957031 7.707032-16.863281 33.609375-16.863281 43.511719 0 12.984375 10.5625 23.546875 23.546875 23.546875s23.546875-10.5625 23.546875-23.546875c0-9.898437-12.90625-35.804687-16.859375-43.511719zm0 65.046875c-4.695312 0-8.515625-3.820312-8.515625-8.515625.015625-2.9375 3.777344-12.511719 8.515625-22.859375 4.742188 10.34375 8.5 19.917969 8.515625 22.859375 0 4.695313-3.820313 8.515625-8.515625 8.515625zm0 0"/><path d="m368.21875 399.859375-6.683594 13.019531c-3.957031 7.707032-16.863281 33.609375-16.863281 43.511719 0 12.984375 10.5625 23.546875 23.546875 23.546875s23.546875-10.5625 23.546875-23.546875c0-9.898437-12.90625-35.804687-16.863281-43.511719zm0 65.046875c-4.695312 0-8.515625-3.820312-8.515625-8.515625.015625-2.9375 3.777344-12.511719 8.515625-22.859375 4.742188 10.34375 8.5 19.917969 8.515625 22.859375 0 4.695313-3.820313 8.515625-8.515625 8.515625zm0 0"/><path d="m143.78125 351.765625-6.683594 13.019531c-3.957031 7.707032-16.863281 33.609375-16.863281 43.511719 0 12.984375 10.5625 23.546875 23.546875 23.546875s23.546875-10.5625 23.546875-23.546875c0-9.898437-12.90625-35.804687-16.863281-43.511719zm0 65.046875c-4.695312 0-8.515625-3.820312-8.515625-8.515625.011719-2.9375 3.773437-12.511719 8.515625-22.859375 4.742188 10.34375 8.5 19.921875 8.515625 22.859375 0 4.695313-3.820313 8.515625-8.515625 8.515625zm0 0"/><path d="m207.90625 399.859375-6.683594 13.019531c-3.957031 7.707032-16.863281 33.609375-16.863281 43.511719 0 12.984375 10.5625 23.546875 23.546875 23.546875s23.546875-10.5625 23.546875-23.546875c0-9.898437-12.90625-35.804687-16.863281-43.511719zm0 65.046875c-4.695312 0-8.515625-3.820312-8.515625-8.515625.015625-2.9375 3.773437-12.511719 8.515625-22.859375 4.738281 10.34375 8.5 19.921875 8.515625 22.859375 0 4.695313-3.820313 8.515625-8.515625 8.515625zm0 0"/><path d="m364.347656 273.035156h-72.914062l-47.59375 95.183594h56.109375l-40.078125 80.15625h23.453125l118.160156-127.246094h-61.183594zm2.671875 63.121094-74.171875 79.875 31.421875-62.839844h-56.109375l32.5625-65.128906h39.304688l-24.046875 48.09375zm0 0"/></svg>