<svg height="512pt" viewBox="0 -26 512.00029 512" width="512pt" xmlns="http://www.w3.org/2000/svg"><path d="m444.632812 67.367188c-43.441406-43.441407-101.199218-67.367188-162.632812-67.367188-87.089844 0-166.742188 49.476562-205.613281 126.851562h-55.234375c-8.582032 0-16.246094 5.121094-19.53125 13.050782-3.285156 7.929687-1.484375 16.972656 4.582031 23.042968l70.566406 70.566407c3.605469 3.605469 8.402344 5.59375 13.507813 5.59375 5.101562 0 9.894531-1.984375 13.5-5.589844l70.570312-70.570313c6.066406-6.070312 7.867188-15.113281 4.582032-23.042968-3.28125-7.929688-10.949219-13.050782-19.53125-13.050782h-48.777344c35.890625-59.507812 100.824218-96.851562 171.378906-96.851562 110.28125 0 200 89.71875 200 200s-89.71875 200-200 200c-53.421875 0-103.644531-20.800781-141.421875-58.574219-5.855469-5.859375-15.355469-5.859375-21.210937 0-5.859376 5.855469-5.859376 15.355469 0 21.210938 43.4375 43.441406 101.195312 67.363281 162.632812 67.363281s119.191406-23.921875 162.636719-67.363281c43.441406-43.441407 67.363281-101.199219 67.363281-162.636719 0-61.433594-23.921875-119.191406-67.367188-162.632812zm-354.355468 137.222656-47.742188-47.738282h95.480469zm0 0"/></svg>